G04 #@! TF.GenerationSoftware,KiCad,Pcbnew,(5.1.5)-3*
G04 #@! TF.CreationDate,2021-05-26T21:19:59-06:00*
G04 #@! TF.ProjectId,star_wars_arcade_main_pcb,73746172-5f77-4617-9273-5f6172636164,rev?*
G04 #@! TF.SameCoordinates,Original*
G04 #@! TF.FileFunction,Paste,Top*
G04 #@! TF.FilePolarity,Positive*
%FSLAX46Y46*%
G04 Gerber Fmt 4.6, Leading zero omitted, Abs format (unit mm)*
G04 Created by KiCad (PCBNEW (5.1.5)-3) date 2021-05-26 21:19:59*
%MOMM*%
%LPD*%
G04 APERTURE LIST*
%ADD10C,2.540000*%
%ADD11R,2.540000X7.620000*%
G04 APERTURE END LIST*
D10*
X157683200Y-40640000D03*
D11*
X157683200Y-36830000D03*
X153720800Y-36830000D03*
D10*
X153720800Y-40640000D03*
X137871200Y-40640000D03*
D11*
X137871200Y-36830000D03*
X161645600Y-36830000D03*
D10*
X161645600Y-40640000D03*
D11*
X145796000Y-36830000D03*
D10*
X145796000Y-40640000D03*
X149758400Y-40640000D03*
D11*
X149758400Y-36830000D03*
X141833600Y-36830000D03*
D10*
X141833600Y-40640000D03*
X118059200Y-40640000D03*
D11*
X114096800Y-36830000D03*
X122021600Y-36830000D03*
D10*
X125984000Y-40640000D03*
X122021600Y-40640000D03*
D11*
X118059200Y-36830000D03*
D10*
X133908800Y-40640000D03*
D11*
X133908800Y-36830000D03*
X110134400Y-36830000D03*
D10*
X110134400Y-40640000D03*
X129946400Y-40640000D03*
D11*
X125984000Y-36830000D03*
X129946400Y-36830000D03*
D10*
X106172000Y-40640000D03*
X98247200Y-40640000D03*
D11*
X98247200Y-36830000D03*
X94284800Y-36830000D03*
D10*
X94284800Y-40640000D03*
X78435200Y-40640000D03*
D11*
X78435200Y-36830000D03*
X102209600Y-36830000D03*
D10*
X102209600Y-40640000D03*
D11*
X86360000Y-36830000D03*
D10*
X86360000Y-40640000D03*
X90322400Y-40640000D03*
D11*
X90322400Y-36830000D03*
X82397600Y-36830000D03*
D10*
X82397600Y-40640000D03*
D11*
X106172000Y-36830000D03*
D10*
X114096800Y-40640000D03*
X114096800Y-40640000D03*
D11*
X106172000Y-36830000D03*
D10*
X82397600Y-40640000D03*
D11*
X82397600Y-36830000D03*
X90322400Y-36830000D03*
D10*
X90322400Y-40640000D03*
X86360000Y-40640000D03*
D11*
X86360000Y-36830000D03*
D10*
X102209600Y-40640000D03*
D11*
X102209600Y-36830000D03*
X78435200Y-36830000D03*
D10*
X78435200Y-40640000D03*
X94284800Y-40640000D03*
D11*
X94284800Y-36830000D03*
X98247200Y-36830000D03*
D10*
X98247200Y-40640000D03*
X106172000Y-40640000D03*
D11*
X129946400Y-36830000D03*
X125984000Y-36830000D03*
D10*
X129946400Y-40640000D03*
X110134400Y-40640000D03*
D11*
X110134400Y-36830000D03*
X133908800Y-36830000D03*
D10*
X133908800Y-40640000D03*
D11*
X118059200Y-36830000D03*
D10*
X122021600Y-40640000D03*
X125984000Y-40640000D03*
D11*
X122021600Y-36830000D03*
X114096800Y-36830000D03*
D10*
X118059200Y-40640000D03*
X141833600Y-40640000D03*
D11*
X141833600Y-36830000D03*
X149758400Y-36830000D03*
D10*
X149758400Y-40640000D03*
X145796000Y-40640000D03*
D11*
X145796000Y-36830000D03*
D10*
X161645600Y-40640000D03*
D11*
X161645600Y-36830000D03*
X137871200Y-36830000D03*
D10*
X137871200Y-40640000D03*
X153720800Y-40640000D03*
D11*
X153720800Y-36830000D03*
X157683200Y-36830000D03*
D10*
X157683200Y-40640000D03*
M02*
