M48
; DRILL file {KiCad (5.1.5)-3} date 6/22/2021 9:49:27 PM
; FORMAT={-:-/ absolute / inch / decimal}
; #@! TF.CreationDate,2021-06-22T21:49:27-06:00
; #@! TF.GenerationSoftware,Kicad,Pcbnew,(5.1.5)-3
; #@! TF.FileFunction,Plated,1,2,PTH
FMAT,2
INCH
T1C0.0300
T2C0.0400
T3C0.0709
T4C0.1250
T5C0.1800
T6C0.2000
%
G90
G05
T1
X2.15Y-6.75
X3.675Y-4.7
X3.675Y-4.15
X3.775Y-4.15
X2.15Y-6.65
X3.775Y-4.7
X3.675Y-5.2
X3.775Y-5.2
T2
X1.175Y-20.775
X1.175Y-20.925
X1.325Y-7.65
X1.325Y-9.2
X1.325Y-10.65
X1.325Y-12.15
X1.325Y-13.325
X1.325Y-13.725
X1.325Y-15.225
X1.325Y-16.825
X1.325Y-18.375
X1.35Y-11.575
X1.35Y-16.525
X1.375Y-13.25
X1.4Y-16.6
X1.425Y-10.425
X1.475Y-2.325
X1.475Y-2.475
X1.475Y-6.575
X1.475Y-11.575
X1.525Y-8.625
X1.575Y-11.625
X1.575Y-11.725
X1.6Y-8.675
X1.6Y-15.025
X1.625Y-11.775
X1.675Y-11.9
X1.7Y-8.375
X1.7Y-15.35
X1.7Y-15.45
X1.725Y-11.575
X1.725Y-16.95
X1.775Y-11.05
X1.8Y-2.15
X1.8Y-8.175
X1.8Y-10.3
X1.825Y-11.125
X1.825Y-12.275
X1.875Y-10.475
X1.875Y-11.225
X1.875Y-11.675
X1.875Y-12.475
X1.875Y-17.925
X1.9Y-7.875
X1.9Y-8.85
X1.9Y-13.425
X1.95Y-8.275
X1.95Y-14.725
X2.0Y-7.775
X2.0Y-9.575
X2.0Y-13.575
X2.0Y-15.7
X2.0Y-16.0
X2.025Y-12.05
X2.05Y-13.65
X2.1Y-14.9
X2.15Y-12.0
X2.175Y-13.375
X2.2Y-8.75
X2.225Y-4.6
X2.275Y-10.375
X2.3Y-15.075
X2.35Y-9.0
X2.35Y-11.95
X2.35Y-14.85
X2.35Y-14.95
X2.35Y-16.6
X2.375Y-13.525
X2.375Y-14.775
X2.4Y-8.675
X2.4Y-11.7
X2.4Y-16.425
X2.475Y-15.25
X2.475Y-16.375
X2.5Y-8.075
X2.5Y-9.475
X2.5Y-10.775
X2.525Y-14.825
X2.525Y-17.1
X2.55Y-9.325
X2.575Y-10.725
X2.575Y-12.15
X2.575Y-12.625
X2.6Y-9.425
X2.625Y-9.825
X2.625Y-15.3
X2.675Y-8.325
X2.675Y-11.85
X2.675Y-12.7
X2.675Y-16.65
X2.7Y-9.625
X2.725Y-10.35
X2.725Y-12.475
X2.725Y-13.85
X2.75Y-9.05
X2.75Y-14.45
X2.775Y-8.275
X2.775Y-10.65
X2.775Y-12.55
X2.775Y-13.25
X2.775Y-13.95
X2.8Y-14.05
X2.825Y-8.625
X2.825Y-10.575
X2.825Y-12.375
X2.825Y-15.45
X2.825Y-16.325
X2.9Y-6.45
X2.9Y-15.125
X2.925Y-9.075
X2.95Y-8.675
X2.95Y-11.85
X2.95Y-16.3
X2.975Y-20.225
X3.0Y-2.6
X3.0Y-11.725
X3.05Y-8.625
X3.088Y-1.837
X3.1Y-13.425
X3.1Y-14.975
X3.2Y-10.2
X3.2Y-11.625
X3.2Y-13.475
X3.244Y-1.844
X3.25Y-2.525
X3.25Y-10.275
X3.25Y-10.55
X3.25Y-15.05
X3.25Y-18.125
X3.275Y-3.95
X3.275Y-8.95
X3.275Y-14.875
X3.275Y-20.5
X3.3Y-12.275
X3.3Y-14.325
X3.325Y-8.75
X3.325Y-9.45
X3.325Y-12.725
X3.325Y-13.975
X3.325Y-14.5
X3.35Y-11.825
X3.35Y-13.2
X3.35Y-13.85
X3.35Y-14.875
X3.35Y-15.55
X3.375Y-8.9
X3.375Y-9.375
X3.375Y-9.725
X3.375Y-10.1
X3.375Y-11.125
X3.375Y-11.525
X3.4Y-2.125
X3.4Y-15.05
X3.45Y-5.2071
X3.45Y-10.925
X3.45Y-12.625
X3.45Y-12.975
X3.45Y-14.2
X3.45Y-14.575
X3.475Y-2.025
X3.475Y-10.825
X3.475Y-17.925
X3.5Y-10.75
X3.5Y-17.45
X3.525Y-9.725
X3.525Y-14.1
X3.55Y-2.125
X3.55Y-5.275
X3.55Y-12.125
X3.55Y-14.25
X3.55Y-17.25
X3.575Y-11.25
X3.6Y-10.35
X3.6Y-13.475
X3.625Y-1.95
X3.625Y-10.65
X3.625Y-12.675
X3.65Y-8.825
X3.675Y-10.2
X3.675Y-20.65
X3.7Y-1.875
X3.7Y-2.775
X3.7Y-9.0
X3.725Y-10.525
X3.725Y-13.475
X3.75Y-10.375
X3.75Y-11.85
X3.75Y-13.25
X3.75Y-16.575
X3.775Y-8.8
X3.775Y-8.975
X3.775Y-14.925
X3.85Y-5.075
X3.85Y-16.7
X3.875Y-11.725
X3.9Y-8.75
X3.925Y-16.625
X3.95Y-1.8
X3.95Y-2.125
X3.95Y-3.825
X3.95Y-16.275
X3.975Y-13.225
X4.0Y-6.25
X4.0Y-11.85
X4.0Y-14.875
X4.0Y-16.175
X4.05Y-10.575
X4.075Y-17.0
X4.1Y-1.8
X4.1Y-9.525
X4.1Y-16.5
X4.125Y-10.575
X4.15Y-11.275
X4.15Y-16.225
X4.175Y-8.175
X4.175Y-9.65
X4.175Y-13.8
X4.2Y-1.8
X4.2Y-9.475
X4.2Y-10.075
X4.2Y-12.475
X4.225Y-5.475
X4.225Y-17.6
X4.25Y-12.05
X4.25Y-13.125
X4.275Y-9.175
X4.275Y-11.125
X4.275Y-11.525
X4.275Y-13.65
X4.275Y-14.7
X4.325Y-1.8
X4.325Y-12.9
X4.325Y-13.5
X4.35Y-8.275
X4.35Y-12.125
X4.35Y-15.7
X4.4Y-1.8
X4.4Y-9.6
X4.4Y-10.375
X4.4Y-15.35
X4.425Y-11.025
X4.45Y-9.025
X4.45Y-9.775
X4.45Y-13.55
X4.45Y-14.85
X4.5Y-7.4
X4.525Y-14.825
X4.525Y-15.15
X4.55Y-7.575
X4.55Y-10.525
X4.55Y-11.975
X4.55Y-13.5
X4.575Y-9.05
X4.6Y-11.9
X4.6Y-21.025
X4.65Y-1.8
X4.65Y-6.65
X4.65Y-13.3
X4.675Y-7.525
X4.675Y-10.575
X4.675Y-11.95
X4.675Y-18.2
X4.7Y-14.95
X4.7Y-21.025
X4.725Y-6.0
X4.725Y-9.075
X4.725Y-13.35
X4.725Y-16.1
X4.775Y-7.15
X4.775Y-10.375
X4.775Y-16.65
X4.8Y-1.8
X4.8Y-20.025
X4.8Y-21.025
X4.825Y-11.675
X4.825Y-18.025
X4.85Y-4.975
X4.85Y-13.3
X4.85Y-13.475
X4.875Y-1.8
X4.875Y-5.075
X4.9Y-10.225
X4.9Y-14.15
X4.9Y-20.025
X4.9Y-21.025
X4.925Y-15.75
X4.95Y-1.8
X4.95Y-2.125
X4.95Y-11.075
X4.95Y-13.5
X4.95Y-14.25
X4.975Y-15.5
X5.0Y-10.275
X5.0Y-16.775
X5.0Y-20.025
X5.0Y-21.025
X5.025Y-7.2
X5.025Y-15.6
X5.05Y-9.475
X5.075Y-7.25
X5.075Y-14.6
X5.075Y-15.35
X5.075Y-20.575
X5.1Y-9.375
X5.1Y-21.025
X5.125Y-7.3
X5.125Y-14.8
X5.15Y-12.275
X5.15Y-12.825
X5.15Y-15.8
X5.175Y-8.0
X5.175Y-12.625
X5.175Y-20.575
X5.2Y-8.275
X5.2Y-9.675
X5.2Y-15.7
X5.2Y-21.025
X5.225Y-8.375
X5.225Y-9.075
X5.225Y-17.4
X5.25Y-13.35
X5.25Y-15.45
X5.25Y-16.25
X5.275Y-1.8
X5.275Y-11.775
X5.3Y-9.05
X5.3Y-16.35
X5.3Y-20.275
X5.3Y-21.025
X5.325Y-5.075
X5.325Y-10.575
X5.375Y-7.15
X5.375Y-11.625
X5.375Y-19.9
X5.4Y-20.3
X5.4Y-21.025
X5.425Y-1.8
X5.45Y-8.8
X5.45Y-12.125
X5.45Y-14.925
X5.45Y-16.525
X5.5Y-8.7
X5.5Y-11.825
X5.5Y-13.35
X5.5Y-16.7
X5.5Y-20.125
X5.5Y-20.325
X5.5Y-21.025
X5.525Y-3.9
X5.525Y-15.05
X5.55Y-18.275
X5.575Y-1.8
X5.575Y-10.325
X5.575Y-14.8
X5.6Y-3.85
X5.6Y-13.5
X5.6Y-17.85
X5.6Y-20.35
X5.6Y-21.025
X5.625Y-6.45
X5.625Y-8.8
X5.65Y-20.6
X5.665Y-1.8
X5.675Y-3.825
X5.675Y-13.525
X5.7Y-7.625
X5.7Y-8.75
X5.7Y-10.325
X5.7Y-20.375
X5.7Y-21.025
X5.74Y-1.8
X5.75Y-3.8
X5.75Y-8.325
X5.75Y-10.875
X5.75Y-17.05
X5.75Y-20.55
X5.775Y-5.325
X5.775Y-16.6
X5.8Y-5.4
X5.8Y-7.925
X5.8Y-9.975
X5.8Y-20.4
X5.8Y-21.025
X5.815Y-1.8
X5.825Y-8.7
X5.825Y-16.425
X5.85Y-5.7
X5.85Y-6.575
X5.85Y-10.775
X5.85Y-11.65
X5.85Y-12.275
X5.85Y-12.425
X5.875Y-7.825
X5.9Y-6.35
X5.9Y-15.8
X5.9Y-20.425
X5.9Y-21.025
X5.925Y-9.625
X5.925Y-16.85
X5.95Y-3.625
X5.975Y-1.8
X5.975Y-15.85
X6.0Y-20.45
X6.0Y-21.025
X6.025Y-16.9
X6.025Y-17.75
X6.05Y-2.65
X6.05Y-9.275
X6.05Y-11.375
X6.05Y-13.55
X6.05Y-17.0
X6.05Y-17.5
X6.075Y-15.95
X6.075Y-20.175
X6.075Y-20.65
X6.1Y-21.025
X6.125Y-19.875
X6.15Y-20.15
X6.15Y-20.65
X6.2Y-2.525
X6.2Y-14.85
X6.2Y-15.125
X6.2Y-17.975
X6.2Y-21.025
X6.208Y-1.833
X6.25Y-8.95
X6.25Y-20.525
X6.3Y-10.225
X6.3Y-14.8
X6.3Y-21.025
X6.325Y-18.075
X6.364Y-1.836
X6.375Y-18.3
X6.4Y-11.95
X6.4Y-16.65
X6.4Y-21.025
X6.475Y-15.15
X6.5Y-12.125
X6.5Y-21.025
X6.525Y-6.35
X6.55Y-7.975
X6.55Y-9.0
X6.55Y-15.125
X6.575Y-6.0
X6.6Y-17.0
X6.6Y-17.25
X6.6Y-20.2
X6.6Y-21.025
X6.65Y-6.05
X6.65Y-13.8
X6.7Y-10.425
X6.7Y-15.55
X6.7Y-16.3
X6.7Y-20.525
X6.7Y-21.025
X6.75Y-10.375
X6.775Y-16.775
X6.8Y-13.275
X6.8Y-20.15
X6.8Y-21.025
X6.825Y-15.65
X6.85Y-13.85
X6.85Y-16.875
X6.85Y-17.75
X6.85Y-20.525
X6.9Y-17.05
X6.9Y-21.025
X6.95Y-13.525
X6.95Y-15.15
X7.0Y-17.15
X7.0Y-20.175
X7.0Y-21.025
X7.05Y-16.65
X7.05Y-16.95
X7.1Y-9.025
X7.1Y-16.325
X7.1Y-21.025
X7.125Y-10.3
X7.175Y-6.3
X7.175Y-6.4
X7.175Y-13.475
X7.175Y-15.125
X7.2Y-21.025
X7.25Y-7.2
X7.25Y-13.55
X7.275Y-2.225
X7.275Y-19.875
X7.3Y-13.25
X7.3Y-20.575
X7.3Y-21.025
X7.325Y-13.95
X7.35Y-8.25
X7.35Y-14.1
X7.35Y-15.3
X7.4Y-20.225
X7.4Y-21.025
X7.425Y-15.05
X7.45Y-12.05
X7.45Y-13.65
X7.475Y-10.475
X7.475Y-11.95
X7.475Y-13.475
X7.475Y-15.225
X7.475Y-17.775
X7.5Y-20.525
X7.5Y-21.025
X7.55Y-6.2
X7.55Y-10.5
X7.55Y-11.875
X7.6Y-17.85
X7.6Y-21.025
X7.625Y-10.525
X7.625Y-12.1
X7.625Y-12.45
X7.625Y-15.85
X7.65Y-9.7
X7.65Y-11.7
X7.7Y-16.275
X7.7Y-20.625
X7.7Y-21.025
X7.775Y-18.3
X7.8Y-7.3
X7.8Y-10.25
X7.8Y-21.025
X7.825Y-17.95
X7.85Y-8.75
X7.85Y-11.65
X7.875Y-11.8
X7.875Y-17.5
X7.9Y-20.15
X7.9Y-20.625
X7.9Y-21.025
X7.925Y-15.125
X7.925Y-17.1
X7.975Y-11.725
X7.975Y-19.875
X7.975Y-20.175
X8.0Y-20.625
X8.0Y-21.025
X8.025Y-17.7
X8.05Y-10.2
X8.05Y-11.775
X8.1Y-20.65
X8.1Y-21.025
X8.125Y-15.1
X8.15Y-6.5
X8.15Y-7.825
X8.15Y-13.15
X8.175Y-14.85
X8.2Y-6.35
X8.2Y-16.55
X8.2Y-21.025
X8.225Y-11.525
X8.225Y-14.45
X8.275Y-6.85
X8.275Y-14.25
X8.3Y-11.325
X8.3Y-20.475
X8.3Y-20.65
X8.3Y-21.025
X8.325Y-15.15
X8.325Y-17.95
X8.325Y-18.3
X8.35Y-6.0
X8.375Y-6.3
X8.375Y-11.125
X8.375Y-14.05
X8.375Y-19.575
X8.4Y-20.025
X8.4Y-21.025
X8.425Y-6.45
X8.425Y-11.225
X8.425Y-14.8
X8.425Y-18.9
X8.45Y-9.725
X8.45Y-19.0
X8.475Y-19.175
X8.475Y-20.025
X8.5Y-6.95
X8.5Y-8.8
X8.5Y-14.15
X8.5Y-17.9
X8.5Y-19.275
X8.5Y-21.025
X8.525Y-12.125
X8.525Y-13.2
X8.55Y-7.325
X8.55Y-19.35
X8.55Y-20.775
X8.575Y-10.35
X8.6Y-13.3
X8.6Y-18.475
X8.6Y-21.025
X8.625Y-11.6
X8.625Y-11.675
X8.625Y-16.25
X8.625Y-19.4
X8.625Y-19.9
X8.675Y-17.3
X8.7Y-21.025
X8.725Y-7.25
X8.75Y-18.05
X8.775Y-15.15
X8.8Y-18.275
X8.8Y-21.025
X8.825Y-10.55
X8.825Y-13.35
X8.85Y-10.625
X8.85Y-13.2
X8.875Y-8.575
X8.875Y-13.125
X8.875Y-16.9
X8.875Y-17.85
X8.925Y-13.4
X8.925Y-16.975
X8.925Y-17.1
X8.925Y-18.3
X8.975Y-16.85
X9.025Y-17.025
X9.025Y-17.5
X9.05Y-6.575
X9.05Y-13.9
X9.05Y-14.0
X9.05Y-14.35
X9.075Y-17.6
X9.1Y-9.875
X9.1Y-12.625
X9.1Y-13.2
X9.1Y-14.9
X9.125Y-8.175
X9.125Y-11.15
X9.125Y-15.5
X9.15Y-18.675
X9.15Y-18.925
X9.2Y-5.475
X9.2Y-9.825
X9.225Y-11.375
X9.225Y-16.2
X9.25Y-7.825
X9.25Y-9.625
X9.25Y-11.275
X9.25Y-18.475
X9.275Y-9.325
X9.275Y-12.525
X9.275Y-13.125
X9.3Y-7.475
X9.3Y-14.8
X9.3Y-16.5
X9.325Y-12.075
X9.35Y-7.575
X9.35Y-12.0
X9.375Y-9.025
X9.375Y-10.325
X9.375Y-13.75
X9.425Y-13.95
X9.425Y-16.525
X9.45Y-7.525
X9.45Y-8.85
X9.45Y-10.375
X9.45Y-11.725
X9.45Y-15.05
X9.475Y-16.75
X9.5Y-8.925
X9.55Y-5.8
X9.55Y-8.575
X9.575Y-11.95
X9.6Y-11.775
X9.6Y-16.35
X9.6Y-17.9
X9.625Y-18.475
X9.65Y-6.95
X9.65Y-16.475
X9.675Y-19.55
X9.7Y-7.325
X9.7Y-18.15
X9.725Y-15.0
X9.75Y-8.025
X9.75Y-9.025
X9.75Y-10.275
X9.75Y-13.05
X9.75Y-16.2
X9.75Y-18.55
X9.75Y-19.85
X9.775Y-12.825
X9.775Y-14.95
X9.8Y-9.475
X9.8Y-10.925
X9.8Y-18.8
X9.825Y-9.05
X9.825Y-19.1
X9.85Y-10.775
X9.875Y-9.325
X9.9Y-9.525
X9.9Y-10.975
X9.9Y-12.325
X9.925Y-8.275
X9.925Y-14.05
X9.95Y-16.3
X9.95Y-16.75
X9.975Y-8.325
X9.975Y-13.85
X10.025Y-8.725
X10.025Y-9.925
X10.025Y-11.125
X10.025Y-12.125
X10.05Y-7.625
X10.05Y-7.875
X10.05Y-12.325
X10.05Y-16.75
X10.05Y-18.4
X10.075Y-8.225
X10.075Y-9.825
X10.075Y-10.55
X10.075Y-11.275
X10.1Y-5.8
X10.1Y-17.625
X10.125Y-10.4
X10.125Y-19.95
X10.15Y-16.75
X10.175Y-18.25
X10.175Y-19.8
X10.25Y-10.55
X10.25Y-16.75
X10.3Y-7.4
X10.35Y-16.75
X10.375Y-10.45
X10.4Y-9.1
X10.45Y-16.75
X10.475Y-10.25
X10.55Y-16.75
X10.575Y-10.55
X10.6Y-1.625
X10.6Y-4.675
X10.6Y-6.55
X10.625Y-18.9
X10.65Y-10.5
X10.65Y-16.75
X10.7Y-8.275
X10.7Y-9.975
X10.7Y-13.25
X10.7Y-19.1
X10.7Y-19.2
X10.7Y-20.65
X10.725Y-13.95
X10.725Y-16.75
X10.725Y-18.375
X10.725Y-19.8
X10.75Y-9.575
X10.75Y-12.075
X10.775Y-9.05
X10.8Y-12.0
X10.8Y-16.825
X10.85Y-8.375
X10.85Y-12.325
X10.875Y-16.45
X10.9Y-7.975
X10.9Y-9.925
X10.9Y-11.375
X11.0Y-18.4
X11.05Y-10.35
X11.05Y-16.425
X11.1Y-13.75
X11.1Y-14.5
X11.15Y-17.05
X11.15Y-20.225
X11.175Y-20.6
X11.225Y-14.9
X11.25Y-9.1
X11.25Y-19.975
X11.25Y-20.55
X11.275Y-19.9
X11.3Y-8.725
X11.3Y-20.25
X11.425Y-6.15
X11.425Y-9.875
X11.425Y-16.025
X11.425Y-16.125
X11.425Y-16.225
X11.425Y-16.825
X11.425Y-20.775
X11.425Y-20.925
X11.45Y-6.45
X11.45Y-8.175
X11.5Y-18.55
X11.525Y-15.15
X11.6Y-8.025
X11.6Y-15.225
X11.65Y-8.325
X11.65Y-9.825
X11.675Y-11.375
X11.7Y-10.275
X11.7Y-15.725
X11.7Y-19.175
X11.75Y-1.775
X11.75Y-1.925
X11.775Y-18.65
X11.85Y-15.725
X11.85Y-19.175
X11.875Y-16.775
X11.925Y-18.25
X11.925Y-18.325
X11.925Y-18.425
X11.95Y-16.025
X11.95Y-16.125
X11.95Y-16.225
X11.95Y-16.725
X11.95Y-16.85
X11.95Y-16.975
X11.95Y-17.075
X11.95Y-17.175
X11.95Y-17.275
X11.95Y-17.375
X11.95Y-17.475
X11.95Y-17.575
X11.95Y-17.675
X11.95Y-17.775
X11.95Y-17.875
X11.95Y-17.975
X11.95Y-18.075
X11.95Y-18.175
X12.075Y-3.975
X1.35Y-18.675
X1.95Y-18.675
X7.325Y-6.05
X7.325Y-6.5
X9.15Y-10.6
X9.15Y-11.05
X4.25Y-12.35
X4.25Y-12.8
X6.15Y-10.725
X6.15Y-10.825
X6.15Y-10.925
X6.15Y-11.025
X6.15Y-11.125
X6.15Y-11.225
X6.15Y-11.325
X6.15Y-11.425
X6.45Y-10.725
X6.45Y-10.825
X6.45Y-10.925
X6.45Y-11.025
X6.45Y-11.125
X6.45Y-11.225
X6.45Y-11.325
X6.45Y-11.425
X1.325Y-13.6
X1.775Y-13.6
X8.575Y-12.275
X8.575Y-12.375
X8.575Y-12.475
X8.575Y-12.575
X8.575Y-12.675
X8.575Y-12.775
X8.575Y-12.875
X8.875Y-12.275
X8.875Y-12.375
X8.875Y-12.475
X8.875Y-12.575
X8.875Y-12.675
X8.875Y-12.775
X8.875Y-12.875
X10.175Y-9.275
X10.175Y-9.375
X10.175Y-9.475
X10.175Y-9.575
X10.175Y-9.675
X10.175Y-9.775
X10.175Y-9.875
X10.175Y-9.975
X10.475Y-9.275
X10.475Y-9.375
X10.475Y-9.475
X10.475Y-9.575
X10.475Y-9.675
X10.475Y-9.775
X10.475Y-9.875
X10.475Y-9.975
X9.35Y-7.775
X9.35Y-7.875
X9.35Y-7.975
X9.35Y-8.075
X9.35Y-8.175
X9.35Y-8.275
X9.35Y-8.375
X9.65Y-7.775
X9.65Y-7.875
X9.65Y-7.975
X9.65Y-8.075
X9.65Y-8.175
X9.65Y-8.275
X9.65Y-8.375
X7.75Y-13.7
X7.75Y-13.8
X7.75Y-13.9
X7.75Y-14.0
X7.75Y-14.1
X7.75Y-14.2
X7.75Y-14.3
X7.75Y-14.4
X7.75Y-14.5
X7.75Y-14.6
X8.05Y-13.7
X8.05Y-13.8
X8.05Y-13.9
X8.05Y-14.0
X8.05Y-14.1
X8.05Y-14.2
X8.05Y-14.3
X8.05Y-14.4
X8.05Y-14.5
X8.05Y-14.6
X4.275Y-10.85
X4.275Y-11.3
X8.575Y-5.85
X8.575Y-5.95
X8.575Y-6.05
X8.575Y-6.15
X8.575Y-6.25
X8.575Y-6.35
X8.575Y-6.45
X8.575Y-6.55
X8.575Y-6.65
X8.575Y-6.75
X8.875Y-5.85
X8.875Y-5.95
X8.875Y-6.05
X8.875Y-6.15
X8.875Y-6.25
X8.875Y-6.35
X8.875Y-6.45
X8.875Y-6.55
X8.875Y-6.65
X8.875Y-6.75
X6.45Y-18.45
X6.45Y-18.55
X6.45Y-18.65
X6.45Y-18.75
X6.45Y-18.85
X6.45Y-18.95
X6.45Y-19.05
X6.45Y-19.15
X6.45Y-19.25
X6.45Y-19.35
X6.45Y-19.45
X6.45Y-19.55
X6.45Y-19.65
X6.45Y-19.75
X7.05Y-18.45
X7.05Y-18.55
X7.05Y-18.65
X7.05Y-18.75
X7.05Y-18.85
X7.05Y-18.95
X7.05Y-19.05
X7.05Y-19.15
X7.05Y-19.25
X7.05Y-19.35
X7.05Y-19.45
X7.05Y-19.55
X7.05Y-19.65
X7.05Y-19.75
X2.875Y-16.85
X2.875Y-16.95
X2.875Y-17.05
X2.875Y-17.15
X2.875Y-17.25
X2.875Y-17.35
X2.875Y-17.45
X2.875Y-17.55
X3.175Y-16.85
X3.175Y-16.95
X3.175Y-17.05
X3.175Y-17.15
X3.175Y-17.25
X3.175Y-17.35
X3.175Y-17.45
X3.175Y-17.55
X2.125Y-5.9
X2.125Y-6.35
X11.775Y-6.0
X11.775Y-6.1
X11.775Y-6.2
X11.775Y-6.3
X11.775Y-6.4
X11.775Y-6.5
X11.775Y-6.6
X12.075Y-6.0
X12.075Y-6.1
X12.075Y-6.2
X12.075Y-6.3
X12.075Y-6.4
X12.075Y-6.5
X12.075Y-6.6
X9.525Y-2.125
X10.6Y-2.125
X8.675Y-20.025
X8.675Y-20.325
X8.775Y-20.025
X8.775Y-20.325
X8.875Y-20.025
X8.875Y-20.325
X8.975Y-20.025
X8.975Y-20.325
X9.075Y-20.025
X9.075Y-20.325
X9.175Y-20.025
X9.175Y-20.325
X9.275Y-20.025
X9.275Y-20.325
X9.375Y-20.025
X9.375Y-20.325
X9.475Y-20.025
X9.475Y-20.325
X9.575Y-20.025
X9.575Y-20.325
X7.025Y-3.025
X7.475Y-3.025
X9.525Y-15.3
X9.525Y-15.4
X9.525Y-15.5
X9.525Y-15.6
X9.525Y-15.7
X9.525Y-15.8
X9.525Y-15.9
X9.525Y-16.0
X9.825Y-15.3
X9.825Y-15.4
X9.825Y-15.5
X9.825Y-15.6
X9.825Y-15.7
X9.825Y-15.8
X9.825Y-15.9
X9.825Y-16.0
X6.075Y-4.075
X6.525Y-4.075
X7.275Y-19.1
X7.275Y-19.55
X7.625Y-4.175
X8.075Y-4.175
X1.325Y-10.775
X1.325Y-10.875
X1.325Y-10.975
X1.325Y-11.075
X1.325Y-11.175
X1.325Y-11.275
X1.325Y-11.375
X1.625Y-10.775
X1.625Y-10.875
X1.625Y-10.975
X1.625Y-11.075
X1.625Y-11.175
X1.625Y-11.275
X1.625Y-11.375
X6.075Y-4.675
X6.525Y-4.675
X3.425Y-2.775
X3.425Y-2.975
X5.375Y-19.0
X5.375Y-19.45
X5.0Y-3.025
X5.45Y-3.025
X2.625Y-19.15
X2.625Y-19.4
X2.1Y-10.725
X2.1Y-10.825
X2.1Y-10.925
X2.1Y-11.025
X2.1Y-11.125
X2.1Y-11.225
X2.1Y-11.325
X2.1Y-11.425
X2.4Y-10.725
X2.4Y-10.825
X2.4Y-10.925
X2.4Y-11.025
X2.4Y-11.125
X2.4Y-11.225
X2.4Y-11.325
X2.4Y-11.425
X5.225Y-4.875
X5.675Y-4.875
X8.4Y-13.525
X8.6Y-13.525
X6.15Y-13.7
X6.15Y-13.8
X6.15Y-13.9
X6.15Y-14.0
X6.15Y-14.1
X6.15Y-14.2
X6.15Y-14.3
X6.15Y-14.4
X6.15Y-14.5
X6.15Y-14.6
X6.45Y-13.7
X6.45Y-13.8
X6.45Y-13.9
X6.45Y-14.0
X6.45Y-14.1
X6.45Y-14.2
X6.45Y-14.3
X6.45Y-14.4
X6.45Y-14.5
X6.45Y-14.6
X6.075Y-3.025
X6.525Y-3.025
X1.7Y-19.1
X1.7Y-19.55
X8.575Y-10.775
X8.575Y-10.875
X8.575Y-10.975
X8.575Y-11.075
X8.575Y-11.175
X8.575Y-11.275
X8.575Y-11.375
X8.875Y-10.775
X8.875Y-10.875
X8.875Y-10.975
X8.875Y-11.075
X8.875Y-11.175
X8.875Y-11.275
X8.875Y-11.375
X8.75Y-4.475
X9.2Y-4.475
X1.825Y-4.25
X1.825Y-4.7
X6.075Y-4.175
X6.525Y-4.175
X10.075Y-15.85
X10.275Y-15.85
X3.725Y-13.7
X3.725Y-13.8
X3.725Y-13.9
X3.725Y-14.0
X3.725Y-14.1
X3.725Y-14.2
X3.725Y-14.3
X3.725Y-14.4
X3.725Y-14.5
X3.725Y-14.6
X4.025Y-13.7
X4.025Y-13.8
X4.025Y-13.9
X4.025Y-14.0
X4.025Y-14.1
X4.025Y-14.2
X4.025Y-14.3
X4.025Y-14.4
X4.025Y-14.5
X4.025Y-14.6
X8.75Y-4.375
X9.2Y-4.375
X3.85Y-6.225
X3.85Y-6.675
X10.875Y-17.75
X11.075Y-17.75
X4.15Y-6.1
X4.15Y-6.2
X4.15Y-6.3
X4.15Y-6.4
X4.15Y-6.5
X4.15Y-6.6
X4.15Y-6.7
X4.15Y-6.8
X4.45Y-6.1
X4.45Y-6.2
X4.45Y-6.3
X4.45Y-6.4
X4.45Y-6.5
X4.45Y-6.6
X4.45Y-6.7
X4.45Y-6.8
X3.45Y-7.9
X3.45Y-8.35
X3.625Y-6.225
X3.625Y-6.675
X1.525Y-18.85
X1.775Y-18.85
X2.1Y-15.35
X2.1Y-15.45
X2.1Y-15.55
X2.1Y-15.65
X2.1Y-15.75
X2.1Y-15.85
X2.1Y-15.95
X2.4Y-15.35
X2.4Y-15.45
X2.4Y-15.55
X2.4Y-15.65
X2.4Y-15.75
X2.4Y-15.85
X2.4Y-15.95
X5.725Y-6.175
X5.725Y-6.625
X10.95Y-2.7
X10.95Y-3.5
X6.775Y-17.05
X6.775Y-17.5
X11.0Y-9.275
X11.0Y-9.375
X11.0Y-9.475
X11.0Y-9.575
X11.0Y-9.675
X11.0Y-9.775
X11.0Y-9.875
X11.0Y-9.975
X11.3Y-9.275
X11.3Y-9.375
X11.3Y-9.475
X11.3Y-9.575
X11.3Y-9.675
X11.3Y-9.775
X11.3Y-9.875
X11.3Y-9.975
X1.3Y-16.7
X1.75Y-16.7
X4.45Y-16.85
X4.45Y-16.95
X4.45Y-17.05
X4.45Y-17.15
X4.45Y-17.25
X4.45Y-17.35
X4.45Y-17.45
X4.45Y-17.55
X4.75Y-16.85
X4.75Y-16.95
X4.75Y-17.05
X4.75Y-17.15
X4.75Y-17.25
X4.75Y-17.35
X4.75Y-17.45
X4.75Y-17.55
X7.55Y-12.325
X7.55Y-12.775
X2.9Y-10.725
X2.9Y-10.825
X2.9Y-10.925
X2.9Y-11.025
X2.9Y-11.125
X2.9Y-11.225
X2.9Y-11.325
X2.9Y-11.425
X3.2Y-10.725
X3.2Y-10.825
X3.2Y-10.925
X3.2Y-11.025
X3.2Y-11.125
X3.2Y-11.225
X3.2Y-11.325
X3.2Y-11.425
X6.95Y-7.775
X6.95Y-7.875
X6.95Y-7.975
X6.95Y-8.075
X6.95Y-8.175
X6.95Y-8.275
X6.95Y-8.375
X7.25Y-7.775
X7.25Y-7.875
X7.25Y-7.975
X7.25Y-8.075
X7.25Y-8.175
X7.25Y-8.275
X7.25Y-8.375
X9.375Y-12.275
X9.375Y-12.375
X9.375Y-12.475
X9.375Y-12.575
X9.375Y-12.675
X9.375Y-12.775
X9.375Y-12.875
X9.675Y-12.275
X9.675Y-12.375
X9.675Y-12.475
X9.675Y-12.575
X9.675Y-12.675
X9.675Y-12.775
X9.675Y-12.875
X1.85Y-6.25
X1.85Y-6.7
X9.35Y-5.95
X9.35Y-6.05
X9.35Y-6.15
X9.35Y-6.25
X9.35Y-6.35
X9.35Y-6.45
X9.35Y-6.55
X9.35Y-6.65
X9.65Y-5.95
X9.65Y-6.05
X9.65Y-6.15
X9.65Y-6.25
X9.65Y-6.35
X9.65Y-6.45
X9.65Y-6.55
X9.65Y-6.65
X6.95Y-15.3
X6.95Y-15.4
X6.95Y-15.5
X6.95Y-15.6
X6.95Y-15.7
X6.95Y-15.8
X6.95Y-15.9
X6.95Y-16.0
X7.25Y-15.3
X7.25Y-15.4
X7.25Y-15.5
X7.25Y-15.6
X7.25Y-15.7
X7.25Y-15.8
X7.25Y-15.9
X7.25Y-16.0
X3.675Y-16.9
X3.675Y-17.0
X3.675Y-17.1
X3.675Y-17.2
X3.675Y-17.3
X3.675Y-17.4
X3.675Y-17.5
X3.975Y-16.9
X3.975Y-17.0
X3.975Y-17.1
X3.975Y-17.2
X3.975Y-17.3
X3.975Y-17.4
X3.975Y-17.5
X10.725Y-2.125
X11.8Y-2.125
X3.575Y-18.45
X3.575Y-18.55
X3.575Y-18.65
X3.575Y-18.75
X3.575Y-18.85
X3.575Y-18.95
X3.575Y-19.05
X3.575Y-19.15
X3.575Y-19.25
X3.575Y-19.35
X3.575Y-19.45
X3.575Y-19.55
X3.575Y-19.65
X3.575Y-19.75
X4.175Y-18.45
X4.175Y-18.55
X4.175Y-18.65
X4.175Y-18.75
X4.175Y-18.85
X4.175Y-18.95
X4.175Y-19.05
X4.175Y-19.15
X4.175Y-19.25
X4.175Y-19.35
X4.175Y-19.45
X4.175Y-19.55
X4.175Y-19.65
X4.175Y-19.75
X4.325Y-3.2
X4.775Y-3.2
X6.075Y-4.375
X6.525Y-4.375
X2.3Y-3.075
X2.75Y-3.075
X1.325Y-16.9
X1.325Y-17.0
X1.325Y-17.1
X1.325Y-17.2
X1.325Y-17.3
X1.325Y-17.4
X1.325Y-17.5
X1.625Y-16.9
X1.625Y-17.0
X1.625Y-17.1
X1.625Y-17.2
X1.625Y-17.3
X1.625Y-17.4
X1.625Y-17.5
X6.075Y-4.775
X6.525Y-4.775
X1.475Y-2.15
X1.675Y-2.15
X1.325Y-12.225
X1.325Y-12.325
X1.325Y-12.425
X1.325Y-12.525
X1.325Y-12.625
X1.325Y-12.725
X1.325Y-12.825
X1.325Y-12.925
X1.625Y-12.225
X1.625Y-12.325
X1.625Y-12.425
X1.625Y-12.525
X1.625Y-12.625
X1.625Y-12.725
X1.625Y-12.825
X1.625Y-12.925
X6.675Y-2.925
X6.875Y-2.925
X6.075Y-3.225
X6.525Y-3.225
X5.225Y-4.975
X5.675Y-4.975
X2.2Y-18.7
X2.3Y-18.6
X2.4Y-18.7
X5.0Y-3.525
X5.45Y-3.525
X4.15Y-5.65
X4.35Y-5.65
X6.95Y-13.7
X6.95Y-13.8
X6.95Y-13.9
X6.95Y-14.0
X6.95Y-14.1
X6.95Y-14.2
X6.95Y-14.3
X6.95Y-14.4
X6.95Y-14.5
X6.95Y-14.6
X7.25Y-13.7
X7.25Y-13.8
X7.25Y-13.9
X7.25Y-14.0
X7.25Y-14.1
X7.25Y-14.2
X7.25Y-14.3
X7.25Y-14.4
X7.25Y-14.5
X7.25Y-14.6
X5.0Y-3.425
X5.45Y-3.425
X9.15Y-18.0
X9.35Y-18.0
X9.375Y-10.625
X9.375Y-10.725
X9.375Y-10.825
X9.375Y-10.925
X9.375Y-11.025
X9.375Y-11.125
X9.375Y-11.225
X9.375Y-11.325
X9.375Y-11.425
X9.375Y-11.525
X9.675Y-10.625
X9.675Y-10.725
X9.675Y-10.825
X9.675Y-10.925
X9.675Y-11.025
X9.675Y-11.125
X9.675Y-11.225
X9.675Y-11.325
X9.675Y-11.425
X9.675Y-11.525
X4.525Y-4.15
X4.525Y-4.25
X4.525Y-4.35
X4.525Y-4.45
X4.525Y-4.55
X4.525Y-4.65
X4.525Y-4.75
X4.825Y-4.15
X4.825Y-4.25
X4.825Y-4.35
X4.825Y-4.45
X4.825Y-4.55
X4.825Y-4.65
X4.825Y-4.75
X12.075Y-13.625
X12.075Y-14.075
X5.225Y-4.775
X5.675Y-4.775
X10.875Y-18.275
X11.075Y-18.275
X6.0Y-5.85
X6.0Y-5.95
X6.0Y-6.05
X6.0Y-6.15
X6.0Y-6.25
X6.0Y-6.35
X6.0Y-6.45
X6.0Y-6.55
X6.0Y-6.65
X6.0Y-6.75
X6.3Y-5.85
X6.3Y-5.95
X6.3Y-6.05
X6.3Y-6.15
X6.3Y-6.25
X6.3Y-6.35
X6.3Y-6.45
X6.3Y-6.55
X6.3Y-6.65
X6.3Y-6.75
X1.475Y-3.725
X1.675Y-3.725
X10.075Y-15.6
X10.275Y-15.6
X10.175Y-4.075
X10.175Y-4.175
X10.175Y-4.275
X10.175Y-4.375
X10.175Y-4.475
X10.175Y-4.575
X10.175Y-4.675
X10.175Y-4.775
X10.475Y-4.075
X10.475Y-4.175
X10.475Y-4.275
X10.475Y-4.375
X10.475Y-4.475
X10.475Y-4.575
X10.475Y-4.675
X10.475Y-4.775
X2.1Y-16.9
X2.1Y-17.0
X2.1Y-17.1
X2.1Y-17.2
X2.1Y-17.3
X2.1Y-17.4
X2.1Y-17.5
X2.4Y-16.9
X2.4Y-17.0
X2.4Y-17.1
X2.4Y-17.2
X2.4Y-17.3
X2.4Y-17.4
X2.4Y-17.5
X9.05Y-7.875
X9.05Y-8.325
X7.75Y-9.325
X7.75Y-9.425
X7.75Y-9.525
X7.75Y-9.625
X7.75Y-9.725
X7.75Y-9.825
X7.75Y-9.925
X8.05Y-9.325
X8.05Y-9.425
X8.05Y-9.525
X8.05Y-9.625
X8.05Y-9.725
X8.05Y-9.825
X8.05Y-9.925
X1.325Y-5.7
X1.775Y-5.7
X7.45Y-7.9
X7.45Y-8.35
X11.775Y-9.275
X11.775Y-9.375
X11.775Y-9.475
X11.775Y-9.575
X11.775Y-9.675
X11.775Y-9.775
X11.775Y-9.875
X11.775Y-9.975
X12.075Y-9.275
X12.075Y-9.375
X12.075Y-9.475
X12.075Y-9.575
X12.075Y-9.675
X12.075Y-9.775
X12.075Y-9.875
X12.075Y-9.975
X4.15Y-4.15
X4.15Y-4.6
X10.175Y-12.275
X10.175Y-12.375
X10.175Y-12.475
X10.175Y-12.575
X10.175Y-12.675
X10.175Y-12.775
X10.175Y-12.875
X10.475Y-12.275
X10.475Y-12.375
X10.475Y-12.475
X10.475Y-12.575
X10.475Y-12.675
X10.475Y-12.775
X10.475Y-12.875
X2.725Y-7.725
X2.725Y-8.175
X6.95Y-10.725
X6.95Y-10.825
X6.95Y-10.925
X6.95Y-11.025
X6.95Y-11.125
X6.95Y-11.225
X6.95Y-11.325
X6.95Y-11.425
X7.25Y-10.725
X7.25Y-10.825
X7.25Y-10.925
X7.25Y-11.025
X7.25Y-11.125
X7.25Y-11.225
X7.25Y-11.325
X7.25Y-11.425
X6.775Y-5.85
X6.775Y-5.95
X6.775Y-6.05
X6.775Y-6.15
X6.775Y-6.25
X6.775Y-6.35
X6.775Y-6.45
X6.775Y-6.55
X6.775Y-6.65
X6.775Y-6.75
X7.075Y-5.85
X7.075Y-5.95
X7.075Y-6.05
X7.075Y-6.15
X7.075Y-6.25
X7.075Y-6.35
X7.075Y-6.45
X7.075Y-6.55
X7.075Y-6.65
X7.075Y-6.75
X2.9Y-15.2
X2.9Y-15.3
X2.9Y-15.4
X2.9Y-15.5
X2.9Y-15.6
X2.9Y-15.7
X2.9Y-15.8
X2.9Y-15.9
X2.9Y-16.0
X2.9Y-16.1
X3.2Y-15.2
X3.2Y-15.3
X3.2Y-15.4
X3.2Y-15.5
X3.2Y-15.6
X3.2Y-15.7
X3.2Y-15.8
X3.2Y-15.9
X3.2Y-16.0
X3.2Y-16.1
X7.475Y-15.45
X7.475Y-15.9
X10.175Y-5.95
X10.175Y-6.05
X10.175Y-6.15
X10.175Y-6.25
X10.175Y-6.35
X10.175Y-6.45
X10.175Y-6.55
X10.175Y-6.65
X10.475Y-5.95
X10.475Y-6.05
X10.475Y-6.15
X10.475Y-6.25
X10.475Y-6.35
X10.475Y-6.45
X10.475Y-6.55
X10.475Y-6.65
X9.225Y-18.75
X9.225Y-19.2
X7.75Y-15.3
X7.75Y-15.4
X7.75Y-15.5
X7.75Y-15.6
X7.75Y-15.7
X7.75Y-15.8
X7.75Y-15.9
X7.75Y-16.0
X8.05Y-15.3
X8.05Y-15.4
X8.05Y-15.5
X8.05Y-15.6
X8.05Y-15.7
X8.05Y-15.8
X8.05Y-15.9
X8.05Y-16.0
X6.15Y-16.85
X6.15Y-16.95
X6.15Y-17.05
X6.15Y-17.15
X6.15Y-17.25
X6.15Y-17.35
X6.15Y-17.45
X6.15Y-17.55
X6.45Y-16.85
X6.45Y-16.95
X6.45Y-17.05
X6.45Y-17.15
X6.45Y-17.25
X6.45Y-17.35
X6.45Y-17.45
X6.45Y-17.55
X1.55Y-5.825
X1.55Y-6.9
X8.7Y-18.475
X8.7Y-18.575
X8.7Y-18.675
X8.7Y-18.775
X8.7Y-18.875
X8.7Y-18.975
X8.7Y-19.075
X8.7Y-19.175
X8.7Y-19.275
X9.0Y-18.475
X9.0Y-18.575
X9.0Y-18.675
X9.0Y-18.775
X9.0Y-18.875
X9.0Y-18.975
X9.0Y-19.075
X9.0Y-19.175
X9.0Y-19.275
X9.325Y-18.75
X9.325Y-19.2
X6.075Y-4.275
X6.525Y-4.275
X2.3Y-3.275
X2.75Y-3.275
X2.1Y-7.725
X2.1Y-7.825
X2.1Y-7.925
X2.1Y-8.025
X2.1Y-8.125
X2.1Y-8.225
X2.1Y-8.325
X2.1Y-8.425
X2.4Y-7.725
X2.4Y-7.825
X2.4Y-7.925
X2.4Y-8.025
X2.4Y-8.125
X2.4Y-8.225
X2.4Y-8.325
X2.4Y-8.425
X6.825Y-4.575
X7.275Y-4.575
X10.55Y-18.7
X10.55Y-19.15
X1.325Y-15.3
X1.325Y-15.4
X1.325Y-15.5
X1.325Y-15.6
X1.325Y-15.7
X1.325Y-15.8
X1.325Y-15.9
X1.325Y-16.0
X1.625Y-15.3
X1.625Y-15.4
X1.625Y-15.5
X1.625Y-15.6
X1.625Y-15.7
X1.625Y-15.8
X1.625Y-15.9
X1.625Y-16.0
X7.075Y-3.125
X7.275Y-3.125
X6.075Y-3.325
X6.525Y-3.325
X5.0Y-2.925
X5.45Y-2.925
X6.05Y-5.65
X6.25Y-5.65
X2.1Y-12.225
X2.1Y-12.325
X2.1Y-12.425
X2.1Y-12.525
X2.1Y-12.625
X2.1Y-12.725
X2.1Y-12.825
X2.1Y-12.925
X2.4Y-12.225
X2.4Y-12.325
X2.4Y-12.425
X2.4Y-12.525
X2.4Y-12.625
X2.4Y-12.725
X2.4Y-12.825
X2.4Y-12.925
X6.825Y-4.475
X7.275Y-4.475
X4.125Y-17.9
X4.325Y-17.9
X5.325Y-12.275
X5.325Y-12.375
X5.325Y-12.475
X5.325Y-12.575
X5.325Y-12.675
X5.325Y-12.775
X5.325Y-12.875
X5.625Y-12.275
X5.625Y-12.375
X5.625Y-12.475
X5.625Y-12.575
X5.625Y-12.675
X5.625Y-12.775
X5.625Y-12.875
X5.0Y-3.325
X5.45Y-3.325
X1.425Y-20.25
X1.625Y-20.25
X10.175Y-10.725
X10.175Y-10.825
X10.175Y-10.925
X10.175Y-11.025
X10.175Y-11.125
X10.175Y-11.225
X10.175Y-11.325
X10.175Y-11.425
X10.475Y-10.725
X10.475Y-10.825
X10.475Y-10.925
X10.475Y-11.025
X10.475Y-11.125
X10.475Y-11.225
X10.475Y-11.325
X10.475Y-11.425
X8.75Y-4.775
X9.2Y-4.775
X11.625Y-7.625
X12.075Y-7.625
X5.225Y-4.375
X5.675Y-4.375
X10.875Y-18.1
X11.075Y-18.1
X8.75Y-4.675
X9.2Y-4.675
X1.3Y-9.075
X1.75Y-9.075
X10.075Y-15.35
X10.275Y-15.35
X2.1Y-13.8
X2.1Y-13.9
X2.1Y-14.0
X2.1Y-14.1
X2.1Y-14.2
X2.1Y-14.3
X2.1Y-14.4
X2.1Y-14.5
X2.4Y-13.8
X2.4Y-13.9
X2.4Y-14.0
X2.4Y-14.1
X2.4Y-14.2
X2.4Y-14.3
X2.4Y-14.4
X2.4Y-14.5
X9.625Y-18.75
X9.625Y-19.2
X4.275Y-9.35
X4.275Y-9.8
X6.95Y-9.225
X6.95Y-9.325
X6.95Y-9.425
X6.95Y-9.525
X6.95Y-9.625
X6.95Y-9.725
X6.95Y-9.825
X6.95Y-9.925
X6.95Y-10.025
X7.25Y-9.225
X7.25Y-9.325
X7.25Y-9.425
X7.25Y-9.525
X7.25Y-9.625
X7.25Y-9.725
X7.25Y-9.825
X7.25Y-9.925
X7.25Y-10.025
X11.625Y-5.8
X12.075Y-5.8
X7.45Y-13.95
X7.45Y-14.4
X4.525Y-10.725
X4.525Y-10.825
X4.525Y-10.925
X4.525Y-11.025
X4.525Y-11.125
X4.525Y-11.225
X4.525Y-11.325
X4.525Y-11.425
X4.825Y-10.725
X4.825Y-10.825
X4.825Y-10.925
X4.825Y-11.025
X4.825Y-11.125
X4.825Y-11.225
X4.825Y-11.325
X4.825Y-11.425
X10.35Y-16.175
X10.8Y-16.175
X5.35Y-16.85
X5.35Y-16.95
X5.35Y-17.05
X5.35Y-17.15
X5.35Y-17.25
X5.35Y-17.35
X5.35Y-17.45
X5.65Y-16.85
X5.65Y-16.95
X5.65Y-17.05
X5.65Y-17.15
X5.65Y-17.25
X5.65Y-17.35
X5.65Y-17.45
X2.0Y-18.925
X2.1Y-19.575
X2.2Y-18.925
X5.325Y-9.225
X5.325Y-9.325
X5.325Y-9.425
X5.325Y-9.525
X5.325Y-9.625
X5.325Y-9.725
X5.325Y-9.825
X5.325Y-9.925
X5.325Y-10.025
X5.625Y-9.225
X5.625Y-9.325
X5.625Y-9.425
X5.625Y-9.525
X5.625Y-9.625
X5.625Y-9.725
X5.625Y-9.825
X5.625Y-9.925
X5.625Y-10.025
X7.75Y-5.85
X7.75Y-5.95
X7.75Y-6.05
X7.75Y-6.15
X7.75Y-6.25
X7.75Y-6.35
X7.75Y-6.45
X7.75Y-6.55
X7.75Y-6.65
X7.75Y-6.75
X8.05Y-5.85
X8.05Y-5.95
X8.05Y-6.05
X8.05Y-6.15
X8.05Y-6.25
X8.05Y-6.35
X8.05Y-6.45
X8.05Y-6.55
X8.05Y-6.65
X8.05Y-6.75
X6.15Y-15.3
X6.15Y-15.4
X6.15Y-15.5
X6.15Y-15.6
X6.15Y-15.7
X6.15Y-15.8
X6.15Y-15.9
X6.15Y-16.0
X6.45Y-15.3
X6.45Y-15.4
X6.45Y-15.5
X6.45Y-15.6
X6.45Y-15.7
X6.45Y-15.8
X6.45Y-15.9
X6.45Y-16.0
X4.275Y-15.475
X4.275Y-15.925
X11.0Y-6.0
X11.0Y-6.1
X11.0Y-6.2
X11.0Y-6.3
X11.0Y-6.4
X11.0Y-6.5
X11.0Y-6.6
X11.3Y-6.0
X11.3Y-6.1
X11.3Y-6.2
X11.3Y-6.3
X11.3Y-6.4
X11.3Y-6.5
X11.3Y-6.6
X7.025Y-3.425
X7.475Y-3.425
X7.175Y-16.6
X7.175Y-16.7
X7.175Y-16.8
X7.175Y-16.9
X7.175Y-17.0
X7.175Y-17.1
X7.175Y-17.2
X7.175Y-17.3
X7.175Y-17.4
X7.175Y-17.5
X7.175Y-17.6
X7.175Y-17.7
X7.775Y-16.6
X7.775Y-16.7
X7.775Y-16.8
X7.775Y-16.9
X7.775Y-17.0
X7.775Y-17.1
X7.775Y-17.2
X7.775Y-17.3
X7.775Y-17.4
X7.775Y-17.5
X7.775Y-17.6
X7.775Y-17.7
X3.725Y-15.35
X3.725Y-15.45
X3.725Y-15.55
X3.725Y-15.65
X3.725Y-15.75
X3.725Y-15.85
X3.725Y-15.95
X4.025Y-15.35
X4.025Y-15.45
X4.025Y-15.55
X4.025Y-15.65
X4.025Y-15.75
X4.025Y-15.85
X4.025Y-15.95
X1.7Y-2.85
X1.7Y-3.05
X8.2Y-16.7
X8.2Y-16.8
X8.2Y-16.9
X8.2Y-17.0
X8.2Y-17.1
X8.2Y-17.2
X8.2Y-17.3
X8.2Y-17.4
X8.2Y-17.5
X8.2Y-17.6
X8.5Y-16.7
X8.5Y-16.8
X8.5Y-16.9
X8.5Y-17.0
X8.5Y-17.1
X8.5Y-17.2
X8.5Y-17.3
X8.5Y-17.4
X8.5Y-17.5
X8.5Y-17.6
X7.075Y-3.325
X7.275Y-3.325
X7.625Y-4.775
X8.075Y-4.775
X2.3Y-2.975
X2.75Y-2.975
X2.1Y-9.325
X2.1Y-9.425
X2.1Y-9.525
X2.1Y-9.625
X2.1Y-9.725
X2.1Y-9.825
X2.1Y-9.925
X2.4Y-9.325
X2.4Y-9.425
X2.4Y-9.525
X2.4Y-9.625
X2.4Y-9.725
X2.4Y-9.825
X2.4Y-9.925
X6.825Y-4.875
X7.275Y-4.875
X9.9Y-5.2
X9.9Y-5.65
X3.35Y-18.65
X3.35Y-19.1
X5.0Y-2.825
X5.45Y-2.825
X6.075Y-3.425
X6.525Y-3.425
X1.95Y-19.7
X2.15Y-19.7
X6.825Y-4.375
X7.275Y-4.375
X6.625Y-5.65
X6.825Y-5.65
X3.725Y-12.125
X3.725Y-12.225
X3.725Y-12.325
X3.725Y-12.425
X3.725Y-12.525
X3.725Y-12.625
X3.725Y-12.725
X3.725Y-12.825
X3.725Y-12.925
X3.725Y-13.025
X4.025Y-12.125
X4.025Y-12.225
X4.025Y-12.325
X4.025Y-12.425
X4.025Y-12.525
X4.025Y-12.625
X4.025Y-12.725
X4.025Y-12.825
X4.025Y-12.925
X4.025Y-13.025
X5.225Y-4.675
X5.675Y-4.675
X2.075Y-18.475
X2.525Y-18.475
X11.0Y-10.725
X11.0Y-10.825
X11.0Y-10.925
X11.0Y-11.025
X11.0Y-11.125
X11.0Y-11.225
X11.0Y-11.325
X11.0Y-11.425
X11.3Y-10.725
X11.3Y-10.825
X11.3Y-10.925
X11.3Y-11.025
X11.3Y-11.125
X11.3Y-11.225
X11.3Y-11.325
X11.3Y-11.425
X7.625Y-4.075
X8.075Y-4.075
X1.325Y-7.525
X1.775Y-7.525
X6.075Y-3.525
X6.525Y-3.525
X3.4Y-18.225
X3.6Y-18.225
X8.75Y-4.275
X9.2Y-4.275
X3.725Y-6.225
X3.725Y-6.675
X4.2Y-7.475
X4.4Y-7.475
X7.525Y-9.425
X7.525Y-9.875
X11.625Y-12.2
X12.075Y-12.2
X5.0Y-17.025
X5.0Y-17.475
X9.375Y-9.175
X9.375Y-9.275
X9.375Y-9.375
X9.375Y-9.475
X9.375Y-9.575
X9.375Y-9.675
X9.375Y-9.775
X9.375Y-9.875
X9.375Y-9.975
X9.375Y-10.075
X9.675Y-9.175
X9.675Y-9.275
X9.675Y-9.375
X9.675Y-9.475
X9.675Y-9.575
X9.675Y-9.675
X9.675Y-9.775
X9.675Y-9.875
X9.675Y-9.975
X9.675Y-10.075
X11.625Y-9.075
X12.075Y-9.075
X9.125Y-6.0
X9.125Y-6.45
X2.9Y-9.275
X2.9Y-9.375
X2.9Y-9.475
X2.9Y-9.575
X2.9Y-9.675
X2.9Y-9.775
X2.9Y-9.875
X2.9Y-9.975
X3.2Y-9.275
X3.2Y-9.375
X3.2Y-9.475
X3.2Y-9.575
X3.2Y-9.675
X3.2Y-9.775
X3.2Y-9.875
X3.2Y-9.975
X3.725Y-7.725
X3.725Y-7.825
X3.725Y-7.925
X3.725Y-8.025
X3.725Y-8.125
X3.725Y-8.225
X3.725Y-8.325
X3.725Y-8.425
X4.025Y-7.725
X4.025Y-7.825
X4.025Y-7.925
X4.025Y-8.025
X4.025Y-8.125
X4.025Y-8.225
X4.025Y-8.325
X4.025Y-8.425
X1.3Y-10.525
X1.75Y-10.525
X7.75Y-11.95
X7.75Y-12.05
X7.75Y-12.15
X7.75Y-12.25
X7.75Y-12.35
X7.75Y-12.45
X7.75Y-12.55
X7.75Y-12.65
X7.75Y-12.75
X7.75Y-12.85
X7.75Y-12.95
X7.75Y-13.05
X8.35Y-11.95
X8.35Y-12.05
X8.35Y-12.15
X8.35Y-12.25
X8.35Y-12.35
X8.35Y-12.45
X8.35Y-12.55
X8.35Y-12.65
X8.35Y-12.75
X8.35Y-12.85
X8.35Y-12.95
X8.35Y-13.05
X6.675Y-7.7
X6.675Y-8.15
X8.575Y-9.325
X8.575Y-9.425
X8.575Y-9.525
X8.575Y-9.625
X8.575Y-9.725
X8.575Y-9.825
X8.575Y-9.925
X8.875Y-9.325
X8.875Y-9.425
X8.875Y-9.525
X8.875Y-9.625
X8.875Y-9.725
X8.875Y-9.825
X8.875Y-9.925
X7.75Y-7.775
X7.75Y-7.875
X7.75Y-7.975
X7.75Y-8.075
X7.75Y-8.175
X7.75Y-8.275
X7.75Y-8.375
X8.05Y-7.775
X8.05Y-7.875
X8.05Y-7.975
X8.05Y-8.075
X8.05Y-8.175
X8.05Y-8.275
X8.05Y-8.375
X2.9Y-18.55
X2.9Y-18.65
X2.9Y-18.75
X2.9Y-18.85
X2.9Y-18.95
X2.9Y-19.05
X2.9Y-19.15
X3.2Y-18.55
X3.2Y-18.65
X3.2Y-18.75
X3.2Y-18.85
X3.2Y-18.95
X3.2Y-19.05
X3.2Y-19.15
X5.325Y-15.3
X5.325Y-15.4
X5.325Y-15.5
X5.325Y-15.6
X5.325Y-15.7
X5.325Y-15.8
X5.325Y-15.9
X5.325Y-16.0
X5.625Y-15.3
X5.625Y-15.4
X5.625Y-15.5
X5.625Y-15.6
X5.625Y-15.7
X5.625Y-15.8
X5.625Y-15.9
X5.625Y-16.0
X8.275Y-10.775
X8.275Y-11.225
X5.325Y-7.775
X5.325Y-7.875
X5.325Y-7.975
X5.325Y-8.075
X5.325Y-8.175
X5.325Y-8.275
X5.325Y-8.375
X5.625Y-7.775
X5.625Y-7.875
X5.625Y-7.975
X5.625Y-8.075
X5.625Y-8.175
X5.625Y-8.275
X5.625Y-8.375
X2.3Y-3.175
X2.75Y-3.175
X7.6Y-18.45
X7.6Y-18.55
X7.6Y-18.65
X7.6Y-18.75
X7.6Y-18.85
X7.6Y-18.95
X7.6Y-19.05
X7.6Y-19.15
X7.6Y-19.25
X7.6Y-19.35
X7.6Y-19.45
X7.6Y-19.55
X7.6Y-19.65
X7.6Y-19.75
X8.2Y-18.45
X8.2Y-18.55
X8.2Y-18.65
X8.2Y-18.75
X8.2Y-18.85
X8.2Y-18.95
X8.2Y-19.05
X8.2Y-19.15
X8.2Y-19.25
X8.2Y-19.35
X8.2Y-19.45
X8.2Y-19.55
X8.2Y-19.65
X8.2Y-19.75
X1.55Y-2.85
X1.55Y-3.05
X10.35Y-20.025
X10.35Y-20.325
X10.45Y-20.025
X10.45Y-20.325
X10.55Y-20.025
X10.55Y-20.325
X10.65Y-20.025
X10.65Y-20.325
X10.75Y-20.025
X10.75Y-20.325
X10.85Y-20.025
X10.85Y-20.325
X10.95Y-20.025
X10.95Y-20.325
X11.05Y-20.025
X11.05Y-20.325
X6.075Y-4.575
X6.525Y-4.575
X9.525Y-18.75
X9.525Y-19.2
X6.825Y-4.675
X7.275Y-4.675
X4.325Y-3.3
X4.775Y-3.3
X1.325Y-9.275
X1.325Y-9.375
X1.325Y-9.475
X1.325Y-9.575
X1.325Y-9.675
X1.325Y-9.775
X1.325Y-9.875
X1.325Y-9.975
X1.625Y-9.275
X1.625Y-9.375
X1.625Y-9.475
X1.625Y-9.575
X1.625Y-9.675
X1.625Y-9.775
X1.625Y-9.875
X1.625Y-9.975
X6.825Y-4.775
X7.275Y-4.775
X6.675Y-3.425
X6.875Y-3.425
X5.225Y-4.275
X5.675Y-4.275
X5.0Y-3.225
X5.45Y-3.225
X1.45Y-18.525
X1.9Y-18.525
X4.525Y-13.7
X4.525Y-13.8
X4.525Y-13.9
X4.525Y-14.0
X4.525Y-14.1
X4.525Y-14.2
X4.525Y-14.3
X4.525Y-14.4
X4.525Y-14.5
X4.525Y-14.6
X4.825Y-13.7
X4.825Y-13.8
X4.825Y-13.9
X4.825Y-14.0
X4.825Y-14.1
X4.825Y-14.2
X4.825Y-14.3
X4.825Y-14.4
X4.825Y-14.5
X4.825Y-14.6
X5.225Y-4.575
X5.675Y-4.575
X9.275Y-17.825
X9.725Y-17.825
X6.15Y-12.275
X6.15Y-12.375
X6.15Y-12.475
X6.15Y-12.575
X6.15Y-12.675
X6.15Y-12.775
X6.15Y-12.875
X6.45Y-12.275
X6.45Y-12.375
X6.45Y-12.475
X6.45Y-12.575
X6.45Y-12.675
X6.45Y-12.775
X6.45Y-12.875
X5.225Y-4.175
X5.675Y-4.175
X10.875Y-17.925
X11.075Y-17.925
X11.775Y-10.725
X11.775Y-10.825
X11.775Y-10.925
X11.775Y-11.025
X11.775Y-11.125
X11.775Y-11.225
X11.775Y-11.325
X11.775Y-11.425
X12.075Y-10.725
X12.075Y-10.825
X12.075Y-10.925
X12.075Y-11.025
X12.075Y-11.125
X12.075Y-11.225
X12.075Y-11.325
X12.075Y-11.425
X8.75Y-4.575
X9.2Y-4.575
X3.525Y-6.225
X3.525Y-6.675
X5.225Y-4.475
X5.675Y-4.475
X8.9Y-11.875
X9.1Y-11.875
X8.75Y-4.175
X9.2Y-4.175
X11.7Y-3.1
X11.9Y-3.1
X2.95Y-16.65
X3.15Y-16.65
X7.875Y-2.125
X8.075Y-2.125
X4.275Y-13.925
X4.275Y-14.375
X3.725Y-10.725
X3.725Y-10.825
X3.725Y-10.925
X3.725Y-11.025
X3.725Y-11.125
X3.725Y-11.225
X3.725Y-11.325
X3.725Y-11.425
X4.025Y-10.725
X4.025Y-10.825
X4.025Y-10.925
X4.025Y-11.025
X4.025Y-11.125
X4.025Y-11.225
X4.025Y-11.325
X4.025Y-11.425
X11.625Y-10.525
X12.075Y-10.525
X2.575Y-7.775
X2.575Y-8.225
X3.725Y-9.175
X3.725Y-9.275
X3.725Y-9.375
X3.725Y-9.475
X3.725Y-9.575
X3.725Y-9.675
X3.725Y-9.775
X3.725Y-9.875
X3.725Y-9.975
X3.725Y-10.075
X4.025Y-9.175
X4.025Y-9.275
X4.025Y-9.375
X4.025Y-9.475
X4.025Y-9.575
X4.025Y-9.675
X4.025Y-9.775
X4.025Y-9.875
X4.025Y-9.975
X4.025Y-10.075
X8.575Y-7.775
X8.575Y-7.875
X8.575Y-7.975
X8.575Y-8.075
X8.575Y-8.175
X8.575Y-8.275
X8.575Y-8.375
X8.875Y-7.775
X8.875Y-7.875
X8.875Y-7.975
X8.875Y-8.075
X8.875Y-8.175
X8.875Y-8.275
X8.875Y-8.375
X4.05Y-4.15
X4.05Y-4.6
X9.525Y-13.7
X9.525Y-13.8
X9.525Y-13.9
X9.525Y-14.0
X9.525Y-14.1
X9.525Y-14.2
X9.525Y-14.3
X9.525Y-14.4
X9.525Y-14.5
X9.525Y-14.6
X9.825Y-13.7
X9.825Y-13.8
X9.825Y-13.9
X9.825Y-14.0
X9.825Y-14.1
X9.825Y-14.2
X9.825Y-14.3
X9.825Y-14.4
X9.825Y-14.5
X9.825Y-14.6
X9.9Y-6.0
X9.9Y-6.45
X6.15Y-9.225
X6.15Y-9.325
X6.15Y-9.425
X6.15Y-9.525
X6.15Y-9.625
X6.15Y-9.725
X6.15Y-9.825
X6.15Y-9.925
X6.15Y-10.025
X6.45Y-9.225
X6.45Y-9.325
X6.45Y-9.425
X6.45Y-9.525
X6.45Y-9.625
X6.45Y-9.725
X6.45Y-9.825
X6.45Y-9.925
X6.45Y-10.025
X10.175Y-7.775
X10.175Y-7.875
X10.175Y-7.975
X10.175Y-8.075
X10.175Y-8.175
X10.175Y-8.275
X10.175Y-8.375
X10.475Y-7.775
X10.475Y-7.875
X10.475Y-7.975
X10.475Y-8.075
X10.475Y-8.175
X10.475Y-8.275
X10.475Y-8.375
X5.6Y-18.45
X5.6Y-18.55
X5.6Y-18.65
X5.6Y-18.75
X5.6Y-18.85
X5.6Y-18.95
X5.6Y-19.05
X5.6Y-19.15
X5.6Y-19.25
X5.6Y-19.35
X5.6Y-19.45
X5.6Y-19.55
X5.6Y-19.65
X5.6Y-19.75
X6.2Y-18.45
X6.2Y-18.55
X6.2Y-18.65
X6.2Y-18.75
X6.2Y-18.85
X6.2Y-18.95
X6.2Y-19.05
X6.2Y-19.15
X6.2Y-19.25
X6.2Y-19.35
X6.2Y-19.45
X6.2Y-19.55
X6.2Y-19.65
X6.2Y-19.75
X8.575Y-13.7
X8.575Y-13.8
X8.575Y-13.9
X8.575Y-14.0
X8.575Y-14.1
X8.575Y-14.2
X8.575Y-14.3
X8.575Y-14.4
X8.575Y-14.5
X8.575Y-14.6
X8.875Y-13.7
X8.875Y-13.8
X8.875Y-13.9
X8.875Y-14.0
X8.875Y-14.1
X8.875Y-14.2
X8.875Y-14.3
X8.875Y-14.4
X8.875Y-14.5
X8.875Y-14.6
X5.025Y-7.75
X5.025Y-8.2
X4.525Y-7.725
X4.525Y-7.825
X4.525Y-7.925
X4.525Y-8.025
X4.525Y-8.125
X4.525Y-8.225
X4.525Y-8.325
X4.525Y-8.425
X4.825Y-7.725
X4.825Y-7.825
X4.825Y-7.925
X4.825Y-8.025
X4.825Y-8.125
X4.825Y-8.225
X4.825Y-8.325
X4.825Y-8.425
X6.675Y-3.225
X6.875Y-3.225
X8.575Y-15.3
X8.575Y-15.4
X8.575Y-15.5
X8.575Y-15.6
X8.575Y-15.7
X8.575Y-15.8
X8.575Y-15.9
X8.575Y-16.0
X8.875Y-15.3
X8.875Y-15.4
X8.875Y-15.5
X8.875Y-15.6
X8.875Y-15.7
X8.875Y-15.8
X8.875Y-15.9
X8.875Y-16.0
X1.325Y-3.35
X1.775Y-3.35
X10.825Y-18.55
X10.825Y-18.65
X10.825Y-18.75
X10.825Y-18.85
X10.825Y-18.95
X10.825Y-19.05
X10.825Y-19.15
X10.825Y-19.25
X10.825Y-19.35
X10.825Y-19.45
X11.125Y-18.55
X11.125Y-18.65
X11.125Y-18.75
X11.125Y-18.85
X11.125Y-18.95
X11.125Y-19.05
X11.125Y-19.15
X11.125Y-19.25
X11.125Y-19.35
X11.125Y-19.45
X7.625Y-4.275
X8.075Y-4.275
X3.2Y-4.225
X3.2Y-4.325
X3.2Y-4.425
X7.625Y-4.375
X8.075Y-4.375
X2.3Y-2.775
X2.75Y-2.775
X1.325Y-4.15
X1.325Y-4.25
X1.325Y-4.35
X1.325Y-4.45
X1.325Y-4.55
X1.325Y-4.65
X1.325Y-4.75
X1.625Y-4.15
X1.625Y-4.25
X1.625Y-4.35
X1.625Y-4.45
X1.625Y-4.55
X1.625Y-4.65
X1.625Y-4.75
X7.625Y-4.475
X8.075Y-4.475
X4.375Y-19.0
X4.375Y-19.45
X7.45Y-4.225
X7.45Y-4.675
X10.775Y-4.225
X10.775Y-4.675
X5.0Y-3.125
X5.45Y-3.125
X3.925Y-18.25
X4.125Y-18.25
X6.7Y-11.95
X6.7Y-12.05
X6.7Y-12.15
X6.7Y-12.25
X6.7Y-12.35
X6.7Y-12.45
X6.7Y-12.55
X6.7Y-12.65
X6.7Y-12.75
X6.7Y-12.85
X6.7Y-12.95
X6.7Y-13.05
X7.3Y-11.95
X7.3Y-12.05
X7.3Y-12.15
X7.3Y-12.25
X7.3Y-12.35
X7.3Y-12.45
X7.3Y-12.55
X7.3Y-12.65
X7.3Y-12.75
X7.3Y-12.85
X7.3Y-12.95
X7.3Y-13.05
X6.075Y-2.825
X6.525Y-2.825
X1.875Y-15.45
X1.875Y-15.9
X5.325Y-13.7
X5.325Y-13.8
X5.325Y-13.9
X5.325Y-14.0
X5.325Y-14.1
X5.325Y-14.2
X5.325Y-14.3
X5.325Y-14.4
X5.325Y-14.5
X5.325Y-14.6
X5.625Y-13.7
X5.625Y-13.8
X5.625Y-13.9
X5.625Y-14.0
X5.625Y-14.1
X5.625Y-14.2
X5.625Y-14.3
X5.625Y-14.4
X5.625Y-14.5
X5.625Y-14.6
X8.75Y-4.075
X9.2Y-4.075
X9.125Y-16.75
X9.575Y-16.75
X6.825Y-4.175
X7.275Y-4.175
X11.775Y-20.25
X11.975Y-20.25
X2.9Y-12.225
X2.9Y-12.325
X2.9Y-12.425
X2.9Y-12.525
X2.9Y-12.625
X2.9Y-12.725
X2.9Y-12.825
X2.9Y-12.925
X3.2Y-12.225
X3.2Y-12.325
X3.2Y-12.425
X3.2Y-12.525
X3.2Y-12.625
X3.2Y-12.725
X3.2Y-12.825
X3.2Y-12.925
X2.925Y-2.775
X2.925Y-2.875
X2.925Y-2.975
X2.925Y-3.075
X3.225Y-2.775
X3.225Y-2.875
X3.225Y-2.975
X3.225Y-3.075
X11.875Y-4.55
X12.075Y-4.55
X5.225Y-4.075
X5.675Y-4.075
X8.275Y-4.075
X8.275Y-4.175
X8.275Y-4.275
X8.275Y-4.375
X8.275Y-4.475
X8.275Y-4.575
X8.275Y-4.675
X8.275Y-4.775
X8.575Y-4.075
X8.575Y-4.175
X8.575Y-4.275
X8.575Y-4.375
X8.575Y-4.475
X8.575Y-4.575
X8.575Y-4.675
X8.575Y-4.775
X1.325Y-15.125
X1.775Y-15.125
X11.35Y-21.075
X11.55Y-21.075
X8.275Y-7.875
X8.275Y-8.325
X9.5Y-18.025
X10.3Y-18.025
X5.325Y-10.725
X5.325Y-10.825
X5.325Y-10.925
X5.325Y-11.025
X5.325Y-11.125
X5.325Y-11.225
X5.325Y-11.325
X5.625Y-10.725
X5.625Y-10.825
X5.625Y-10.925
X5.625Y-11.025
X5.625Y-11.125
X5.625Y-11.225
X5.625Y-11.325
X1.3Y-12.025
X1.75Y-12.025
X4.525Y-9.225
X4.525Y-9.325
X4.525Y-9.425
X4.525Y-9.525
X4.525Y-9.625
X4.525Y-9.725
X4.525Y-9.825
X4.525Y-9.925
X4.525Y-10.025
X4.825Y-9.225
X4.825Y-9.325
X4.825Y-9.425
X4.825Y-9.525
X4.825Y-9.625
X4.825Y-9.725
X4.825Y-9.825
X4.825Y-9.925
X4.825Y-10.025
X2.9Y-7.775
X2.9Y-7.875
X2.9Y-7.975
X2.9Y-8.075
X2.9Y-8.175
X2.9Y-8.275
X2.9Y-8.375
X3.2Y-7.775
X3.2Y-7.875
X3.2Y-7.975
X3.2Y-8.075
X3.2Y-8.175
X3.2Y-8.275
X3.2Y-8.375
X4.525Y-15.3
X4.525Y-15.4
X4.525Y-15.5
X4.525Y-15.6
X4.525Y-15.7
X4.525Y-15.8
X4.525Y-15.9
X4.525Y-16.0
X4.825Y-15.3
X4.825Y-15.4
X4.825Y-15.5
X4.825Y-15.6
X4.825Y-15.7
X4.825Y-15.8
X4.825Y-15.9
X4.825Y-16.0
X7.45Y-10.875
X7.45Y-11.325
X11.775Y-7.775
X11.775Y-7.875
X11.775Y-7.975
X11.775Y-8.075
X11.775Y-8.175
X11.775Y-8.275
X11.775Y-8.375
X12.075Y-7.775
X12.075Y-7.875
X12.075Y-7.975
X12.075Y-8.075
X12.075Y-8.175
X12.075Y-8.275
X12.075Y-8.375
X9.15Y-16.9
X9.15Y-17.5
X9.25Y-16.9
X9.25Y-17.5
X9.35Y-16.9
X9.35Y-17.5
X9.45Y-16.9
X9.45Y-17.5
X9.55Y-16.9
X9.55Y-17.5
X9.65Y-16.9
X9.65Y-17.5
X9.75Y-16.9
X9.75Y-17.5
X9.85Y-16.9
X9.85Y-17.5
X9.95Y-16.9
X9.95Y-17.5
X10.05Y-16.9
X10.05Y-17.5
X10.15Y-16.9
X10.15Y-17.5
X10.25Y-16.9
X10.25Y-17.5
X10.35Y-16.9
X10.35Y-17.5
X10.45Y-16.9
X10.45Y-17.5
X10.55Y-16.9
X10.55Y-17.5
X10.65Y-16.9
X10.65Y-17.5
X10.75Y-16.9
X10.75Y-17.5
X10.85Y-16.9
X10.85Y-17.5
X10.95Y-16.9
X10.95Y-17.5
X11.05Y-16.9
X11.05Y-17.5
X11.0Y-12.275
X11.0Y-12.375
X11.0Y-12.475
X11.0Y-12.575
X11.0Y-12.675
X11.0Y-12.775
X11.0Y-12.875
X11.3Y-12.275
X11.3Y-12.375
X11.3Y-12.475
X11.3Y-12.575
X11.3Y-12.675
X11.3Y-12.775
X11.3Y-12.875
X9.275Y-17.725
X9.725Y-17.725
X11.0Y-7.625
X11.0Y-7.725
X11.0Y-7.825
X11.0Y-7.925
X11.0Y-8.025
X11.0Y-8.125
X11.0Y-8.225
X11.0Y-8.325
X11.0Y-8.425
X11.0Y-8.525
X11.3Y-7.625
X11.3Y-7.725
X11.3Y-7.825
X11.3Y-7.925
X11.3Y-8.025
X11.3Y-8.125
X11.3Y-8.225
X11.3Y-8.325
X11.3Y-8.425
X11.3Y-8.525
X2.3Y-2.875
X2.75Y-2.875
X4.575Y-18.45
X4.575Y-18.55
X4.575Y-18.65
X4.575Y-18.75
X4.575Y-18.85
X4.575Y-18.95
X4.575Y-19.05
X4.575Y-19.15
X4.575Y-19.25
X4.575Y-19.35
X4.575Y-19.45
X4.575Y-19.55
X4.575Y-19.65
X4.575Y-19.75
X5.175Y-18.45
X5.175Y-18.55
X5.175Y-18.65
X5.175Y-18.75
X5.175Y-18.85
X5.175Y-18.95
X5.175Y-19.05
X5.175Y-19.15
X5.175Y-19.25
X5.175Y-19.35
X5.175Y-19.45
X5.175Y-19.55
X5.175Y-19.65
X5.175Y-19.75
X7.025Y-3.225
X7.475Y-3.225
X9.95Y-18.55
X9.95Y-18.65
X9.95Y-18.75
X9.95Y-18.85
X9.95Y-18.95
X9.95Y-19.05
X9.95Y-19.15
X9.95Y-19.25
X9.95Y-19.35
X9.95Y-19.45
X10.25Y-18.55
X10.25Y-18.65
X10.25Y-18.75
X10.25Y-18.85
X10.25Y-18.95
X10.25Y-19.05
X10.25Y-19.15
X10.25Y-19.25
X10.25Y-19.35
X10.25Y-19.45
X6.075Y-4.475
X6.525Y-4.475
X9.425Y-18.75
X9.425Y-19.2
X7.625Y-4.675
X8.075Y-4.675
X3.2Y-3.625
X3.2Y-3.725
X3.2Y-3.825
X1.325Y-7.725
X1.325Y-7.825
X1.325Y-7.925
X1.325Y-8.025
X1.325Y-8.125
X1.325Y-8.225
X1.325Y-8.325
X1.325Y-8.425
X1.625Y-7.725
X1.625Y-7.825
X1.625Y-7.925
X1.625Y-8.025
X1.625Y-8.125
X1.625Y-8.225
X1.625Y-8.325
X1.625Y-8.425
X7.625Y-4.575
X8.075Y-4.575
X10.7Y-3.0
X10.7Y-3.1
X10.7Y-3.2
X5.225Y-3.975
X5.675Y-3.975
X6.825Y-4.275
X7.275Y-4.275
X6.075Y-3.125
X6.525Y-3.125
X1.575Y-19.1
X1.575Y-19.55
X4.525Y-12.125
X4.525Y-12.225
X4.525Y-12.325
X4.525Y-12.425
X4.525Y-12.525
X4.525Y-12.625
X4.525Y-12.725
X4.525Y-12.825
X4.525Y-12.925
X4.525Y-13.025
X4.825Y-12.125
X4.825Y-12.225
X4.825Y-12.325
X4.825Y-12.425
X4.825Y-12.525
X4.825Y-12.625
X4.825Y-12.725
X4.825Y-12.825
X4.825Y-12.925
X4.825Y-13.025
X6.075Y-2.925
X6.525Y-2.925
X9.175Y-12.275
X9.175Y-12.725
X7.75Y-10.725
X7.75Y-10.825
X7.75Y-10.925
X7.75Y-11.025
X7.75Y-11.125
X7.75Y-11.225
X7.75Y-11.325
X7.75Y-11.425
X8.05Y-10.725
X8.05Y-10.825
X8.05Y-10.925
X8.05Y-11.025
X8.05Y-11.125
X8.05Y-11.225
X8.05Y-11.325
X8.05Y-11.425
X9.375Y-4.075
X9.375Y-4.175
X9.375Y-4.275
X9.375Y-4.375
X9.375Y-4.475
X9.375Y-4.575
X9.375Y-4.675
X9.375Y-4.775
X9.675Y-4.075
X9.675Y-4.175
X9.675Y-4.275
X9.675Y-4.375
X9.675Y-4.475
X9.675Y-4.575
X9.675Y-4.675
X9.675Y-4.775
X9.0Y-2.3
X9.2Y-2.3
X6.825Y-4.075
X7.275Y-4.075
X10.925Y-16.325
X11.125Y-16.325
X2.9Y-13.8
X2.9Y-13.9
X2.9Y-14.0
X2.9Y-14.1
X2.9Y-14.2
X2.9Y-14.3
X2.9Y-14.4
X2.9Y-14.5
X3.2Y-13.8
X3.2Y-13.9
X3.2Y-14.0
X3.2Y-14.1
X3.2Y-14.2
X3.2Y-14.3
X3.2Y-14.4
X3.2Y-14.5
X4.875Y-5.65
X4.875Y-5.75
X4.875Y-5.85
X4.875Y-5.95
X4.875Y-6.05
X4.875Y-6.15
X4.875Y-6.25
X4.875Y-6.35
X4.875Y-6.45
X4.875Y-6.55
X4.875Y-6.65
X4.875Y-6.75
X4.875Y-6.85
X4.875Y-6.95
X5.475Y-5.65
X5.475Y-5.75
X5.475Y-5.85
X5.475Y-5.95
X5.475Y-6.05
X5.475Y-6.15
X5.475Y-6.25
X5.475Y-6.35
X5.475Y-6.45
X5.475Y-6.55
X5.475Y-6.65
X5.475Y-6.75
X5.475Y-6.85
X5.475Y-6.95
X2.725Y-18.475
X2.725Y-18.925
X4.4Y-2.775
X4.4Y-2.875
X4.4Y-2.975
X4.4Y-3.075
X4.7Y-2.775
X4.7Y-2.875
X4.7Y-2.975
X4.7Y-3.075
X1.3Y-18.275
X1.75Y-18.275
T3
X1.95Y-5.5
X2.106Y-5.5
X2.262Y-5.5
X2.418Y-5.5
X2.574Y-5.5
X2.7299Y-5.5
X3.0417Y-5.5
X3.1976Y-5.5
T4
X2.45Y-4.325
X2.45Y-3.725
X9.95Y-3.1
T5
X1.7Y-14.225
X11.8Y-13.9
T6
X1.15Y-1.55
X1.15Y-21.8
X12.25Y-21.8
X12.25Y-1.55
T0
M30
